<mxfile host="app.diagrams.net" modified="2023-11-04T13:50:14.538Z" agent="Mozilla/5.0 (Windows NT 10.0; Win64; x64) AppleWebKit/537.36 (KHTML, like Gecko) Chrome/118.0.0.0 Safari/537.36" etag="Jvncr-DgCTDpdUh8tF16" version="22.0.8" type="device" pages="3">
  <diagram name="Page-1" id="0g92VVcC2CIgarJ6K-YE">
    <mxGraphModel dx="1674" dy="597" grid="1" gridSize="10" guides="1" tooltips="1" connect="1" arrows="1" fold="1" page="1" pageScale="1" pageWidth="1169" pageHeight="1654" math="0" shadow="0">
      <root>
        <mxCell id="0" />
        <mxCell id="1" parent="0" />
        <mxCell id="Cr-SFjdWEyoEVIL_J9Z0-6" value="" style="edgeStyle=orthogonalEdgeStyle;rounded=0;orthogonalLoop=1;jettySize=auto;html=1;" parent="1" source="Cr-SFjdWEyoEVIL_J9Z0-1" target="Cr-SFjdWEyoEVIL_J9Z0-4" edge="1">
          <mxGeometry relative="1" as="geometry" />
        </mxCell>
        <mxCell id="Cr-SFjdWEyoEVIL_J9Z0-1" value="Actor" style="shape=umlActor;verticalLabelPosition=bottom;verticalAlign=top;html=1;outlineConnect=0;" parent="1" vertex="1">
          <mxGeometry x="40" y="190" width="30" height="60" as="geometry" />
        </mxCell>
        <mxCell id="Cr-SFjdWEyoEVIL_J9Z0-15" value="" style="edgeStyle=orthogonalEdgeStyle;rounded=0;orthogonalLoop=1;jettySize=auto;html=1;" parent="1" source="Cr-SFjdWEyoEVIL_J9Z0-4" target="Cr-SFjdWEyoEVIL_J9Z0-14" edge="1">
          <mxGeometry relative="1" as="geometry" />
        </mxCell>
        <mxCell id="Cr-SFjdWEyoEVIL_J9Z0-18" value="" style="edgeStyle=orthogonalEdgeStyle;rounded=0;orthogonalLoop=1;jettySize=auto;html=1;entryX=0;entryY=0.5;entryDx=0;entryDy=0;" parent="1" source="Cr-SFjdWEyoEVIL_J9Z0-4" target="Cr-SFjdWEyoEVIL_J9Z0-12" edge="1">
          <mxGeometry relative="1" as="geometry">
            <mxPoint x="200" y="110" as="targetPoint" />
          </mxGeometry>
        </mxCell>
        <mxCell id="Cr-SFjdWEyoEVIL_J9Z0-28" value="" style="edgeStyle=orthogonalEdgeStyle;rounded=0;orthogonalLoop=1;jettySize=auto;html=1;" parent="1" source="Cr-SFjdWEyoEVIL_J9Z0-4" target="Cr-SFjdWEyoEVIL_J9Z0-27" edge="1">
          <mxGeometry relative="1" as="geometry" />
        </mxCell>
        <mxCell id="Cr-SFjdWEyoEVIL_J9Z0-4" value="Login/ Registration(Home)" style="rounded=1;whiteSpace=wrap;html=1;" parent="1" vertex="1">
          <mxGeometry x="110" y="190" width="120" height="60" as="geometry" />
        </mxCell>
        <mxCell id="Cr-SFjdWEyoEVIL_J9Z0-37" value="" style="edgeStyle=orthogonalEdgeStyle;rounded=0;orthogonalLoop=1;jettySize=auto;html=1;" parent="1" source="Cr-SFjdWEyoEVIL_J9Z0-5" target="Cr-SFjdWEyoEVIL_J9Z0-36" edge="1">
          <mxGeometry relative="1" as="geometry" />
        </mxCell>
        <mxCell id="Cr-SFjdWEyoEVIL_J9Z0-5" value="Dashboard" style="rounded=1;whiteSpace=wrap;html=1;" parent="1" vertex="1">
          <mxGeometry x="440" y="190" width="120" height="60" as="geometry" />
        </mxCell>
        <mxCell id="Cr-SFjdWEyoEVIL_J9Z0-38" style="edgeStyle=orthogonalEdgeStyle;rounded=0;orthogonalLoop=1;jettySize=auto;html=1;" parent="1" source="Cr-SFjdWEyoEVIL_J9Z0-9" target="Cr-SFjdWEyoEVIL_J9Z0-36" edge="1">
          <mxGeometry relative="1" as="geometry" />
        </mxCell>
        <mxCell id="Cr-SFjdWEyoEVIL_J9Z0-9" value="Dashboard" style="rounded=1;whiteSpace=wrap;html=1;" parent="1" vertex="1">
          <mxGeometry x="440" y="80" width="120" height="60" as="geometry" />
        </mxCell>
        <mxCell id="Cr-SFjdWEyoEVIL_J9Z0-39" style="edgeStyle=orthogonalEdgeStyle;rounded=0;orthogonalLoop=1;jettySize=auto;html=1;" parent="1" source="Cr-SFjdWEyoEVIL_J9Z0-10" edge="1">
          <mxGeometry relative="1" as="geometry">
            <mxPoint x="710" y="260" as="targetPoint" />
          </mxGeometry>
        </mxCell>
        <mxCell id="Cr-SFjdWEyoEVIL_J9Z0-10" value="Dashboard" style="rounded=1;whiteSpace=wrap;html=1;" parent="1" vertex="1">
          <mxGeometry x="440" y="300" width="120" height="60" as="geometry" />
        </mxCell>
        <mxCell id="Cr-SFjdWEyoEVIL_J9Z0-22" value="" style="edgeStyle=orthogonalEdgeStyle;rounded=0;orthogonalLoop=1;jettySize=auto;html=1;" parent="1" source="Cr-SFjdWEyoEVIL_J9Z0-11" target="Cr-SFjdWEyoEVIL_J9Z0-10" edge="1">
          <mxGeometry relative="1" as="geometry" />
        </mxCell>
        <mxCell id="Cr-SFjdWEyoEVIL_J9Z0-11" value="Admin" style="rounded=0;whiteSpace=wrap;html=1;" parent="1" vertex="1">
          <mxGeometry x="290" y="300" width="120" height="60" as="geometry" />
        </mxCell>
        <mxCell id="Cr-SFjdWEyoEVIL_J9Z0-20" value="" style="edgeStyle=orthogonalEdgeStyle;rounded=0;orthogonalLoop=1;jettySize=auto;html=1;" parent="1" source="Cr-SFjdWEyoEVIL_J9Z0-12" target="Cr-SFjdWEyoEVIL_J9Z0-9" edge="1">
          <mxGeometry relative="1" as="geometry" />
        </mxCell>
        <mxCell id="Cr-SFjdWEyoEVIL_J9Z0-12" value="Application Owner" style="rounded=0;whiteSpace=wrap;html=1;" parent="1" vertex="1">
          <mxGeometry x="290" y="80" width="120" height="60" as="geometry" />
        </mxCell>
        <mxCell id="Cr-SFjdWEyoEVIL_J9Z0-21" value="" style="edgeStyle=orthogonalEdgeStyle;rounded=0;orthogonalLoop=1;jettySize=auto;html=1;" parent="1" source="Cr-SFjdWEyoEVIL_J9Z0-14" target="Cr-SFjdWEyoEVIL_J9Z0-5" edge="1">
          <mxGeometry relative="1" as="geometry" />
        </mxCell>
        <mxCell id="Cr-SFjdWEyoEVIL_J9Z0-14" value="User" style="rounded=0;whiteSpace=wrap;html=1;" parent="1" vertex="1">
          <mxGeometry x="290" y="190" width="120" height="60" as="geometry" />
        </mxCell>
        <mxCell id="Cr-SFjdWEyoEVIL_J9Z0-19" style="edgeStyle=orthogonalEdgeStyle;rounded=0;orthogonalLoop=1;jettySize=auto;html=1;entryX=-0.05;entryY=0.733;entryDx=0;entryDy=0;entryPerimeter=0;" parent="1" source="Cr-SFjdWEyoEVIL_J9Z0-4" target="Cr-SFjdWEyoEVIL_J9Z0-11" edge="1">
          <mxGeometry relative="1" as="geometry">
            <Array as="points">
              <mxPoint x="260" y="220" />
              <mxPoint x="260" y="344" />
            </Array>
          </mxGeometry>
        </mxCell>
        <mxCell id="Cr-SFjdWEyoEVIL_J9Z0-23" value="User" style="shape=cylinder3;whiteSpace=wrap;html=1;boundedLbl=1;backgroundOutline=1;size=15;" parent="1" vertex="1">
          <mxGeometry x="1040" y="80" width="70" height="80" as="geometry" />
        </mxCell>
        <mxCell id="Cr-SFjdWEyoEVIL_J9Z0-24" value="Policies" style="shape=cylinder3;whiteSpace=wrap;html=1;boundedLbl=1;backgroundOutline=1;size=15;" parent="1" vertex="1">
          <mxGeometry x="1040" y="190" width="70" height="80" as="geometry" />
        </mxCell>
        <mxCell id="Cr-SFjdWEyoEVIL_J9Z0-26" value="Cart" style="shape=cylinder3;whiteSpace=wrap;html=1;boundedLbl=1;backgroundOutline=1;size=15;" parent="1" vertex="1">
          <mxGeometry x="1040" y="320" width="70" height="80" as="geometry" />
        </mxCell>
        <mxCell id="Cr-SFjdWEyoEVIL_J9Z0-30" value="" style="edgeStyle=orthogonalEdgeStyle;rounded=0;orthogonalLoop=1;jettySize=auto;html=1;" parent="1" source="Cr-SFjdWEyoEVIL_J9Z0-27" target="Cr-SFjdWEyoEVIL_J9Z0-29" edge="1">
          <mxGeometry relative="1" as="geometry" />
        </mxCell>
        <mxCell id="Cr-SFjdWEyoEVIL_J9Z0-27" value="Forgot Password" style="rhombus;whiteSpace=wrap;html=1;" parent="1" vertex="1">
          <mxGeometry x="130" y="330" width="80" height="90" as="geometry" />
        </mxCell>
        <mxCell id="Cr-SFjdWEyoEVIL_J9Z0-29" value="Update Passowrd" style="rounded=1;whiteSpace=wrap;html=1;" parent="1" vertex="1">
          <mxGeometry x="110" y="470" width="120" height="60" as="geometry" />
        </mxCell>
        <mxCell id="Cr-SFjdWEyoEVIL_J9Z0-36" value="Insurance" style="rounded=0;whiteSpace=wrap;html=1;" parent="1" vertex="1">
          <mxGeometry x="650" y="190" width="120" height="60" as="geometry" />
        </mxCell>
        <mxCell id="Cr-SFjdWEyoEVIL_J9Z0-43" value="" style="edgeStyle=orthogonalEdgeStyle;rounded=0;orthogonalLoop=1;jettySize=auto;html=1;" parent="1" source="Cr-SFjdWEyoEVIL_J9Z0-40" target="Cr-SFjdWEyoEVIL_J9Z0-23" edge="1">
          <mxGeometry relative="1" as="geometry" />
        </mxCell>
        <mxCell id="Cr-SFjdWEyoEVIL_J9Z0-40" value="User" style="ellipse;whiteSpace=wrap;html=1;" parent="1" vertex="1">
          <mxGeometry x="820" y="80" width="120" height="80" as="geometry" />
        </mxCell>
        <mxCell id="Cr-SFjdWEyoEVIL_J9Z0-42" value="" style="edgeStyle=orthogonalEdgeStyle;rounded=0;orthogonalLoop=1;jettySize=auto;html=1;" parent="1" source="Cr-SFjdWEyoEVIL_J9Z0-41" target="Cr-SFjdWEyoEVIL_J9Z0-24" edge="1">
          <mxGeometry relative="1" as="geometry" />
        </mxCell>
        <mxCell id="Cr-SFjdWEyoEVIL_J9Z0-41" value="Insurance" style="ellipse;whiteSpace=wrap;html=1;" parent="1" vertex="1">
          <mxGeometry x="820" y="190" width="120" height="80" as="geometry" />
        </mxCell>
        <mxCell id="Cr-SFjdWEyoEVIL_J9Z0-45" value="" style="edgeStyle=orthogonalEdgeStyle;rounded=0;orthogonalLoop=1;jettySize=auto;html=1;" parent="1" source="Cr-SFjdWEyoEVIL_J9Z0-44" target="Cr-SFjdWEyoEVIL_J9Z0-26" edge="1">
          <mxGeometry relative="1" as="geometry" />
        </mxCell>
        <mxCell id="Cr-SFjdWEyoEVIL_J9Z0-44" value="Cart" style="ellipse;whiteSpace=wrap;html=1;" parent="1" vertex="1">
          <mxGeometry x="820" y="320" width="120" height="80" as="geometry" />
        </mxCell>
        <mxCell id="Cr-SFjdWEyoEVIL_J9Z0-47" value="User" style="swimlane;whiteSpace=wrap;html=1;" parent="1" vertex="1">
          <mxGeometry x="220" y="600" width="680" height="720" as="geometry">
            <mxRectangle x="220" y="600" width="70" height="30" as="alternateBounds" />
          </mxGeometry>
        </mxCell>
        <mxCell id="Cr-SFjdWEyoEVIL_J9Z0-49" value="Enitiy - User" style="text;html=1;align=center;verticalAlign=middle;resizable=0;points=[];autosize=1;strokeColor=none;fillColor=none;" parent="Cr-SFjdWEyoEVIL_J9Z0-47" vertex="1">
          <mxGeometry x="180" y="50" width="90" height="30" as="geometry" />
        </mxCell>
        <mxCell id="Cr-SFjdWEyoEVIL_J9Z0-50" value="Registration Class" style="text;html=1;align=center;verticalAlign=middle;resizable=0;points=[];autosize=1;strokeColor=none;fillColor=none;" parent="Cr-SFjdWEyoEVIL_J9Z0-47" vertex="1">
          <mxGeometry y="40" width="120" height="30" as="geometry" />
        </mxCell>
        <mxCell id="Cr-SFjdWEyoEVIL_J9Z0-51" value="Login Class" style="text;html=1;align=center;verticalAlign=middle;resizable=0;points=[];autosize=1;strokeColor=none;fillColor=none;" parent="Cr-SFjdWEyoEVIL_J9Z0-47" vertex="1">
          <mxGeometry x="15" y="80" width="90" height="30" as="geometry" />
        </mxCell>
        <mxCell id="Cr-SFjdWEyoEVIL_J9Z0-52" value="Forget Password&amp;nbsp;" style="text;html=1;align=center;verticalAlign=middle;resizable=0;points=[];autosize=1;strokeColor=none;fillColor=none;" parent="Cr-SFjdWEyoEVIL_J9Z0-47" vertex="1">
          <mxGeometry y="120" width="120" height="30" as="geometry" />
        </mxCell>
        <mxCell id="Cr-SFjdWEyoEVIL_J9Z0-53" value="Model- Request Entity" style="text;html=1;align=center;verticalAlign=middle;resizable=0;points=[];autosize=1;strokeColor=none;fillColor=none;" parent="Cr-SFjdWEyoEVIL_J9Z0-47" vertex="1">
          <mxGeometry x="160" y="90" width="140" height="30" as="geometry" />
        </mxCell>
        <mxCell id="Cr-SFjdWEyoEVIL_J9Z0-55" value="Model-Response Entity" style="text;html=1;align=center;verticalAlign=middle;resizable=0;points=[];autosize=1;strokeColor=none;fillColor=none;" parent="Cr-SFjdWEyoEVIL_J9Z0-47" vertex="1">
          <mxGeometry x="155" y="130" width="150" height="30" as="geometry" />
        </mxCell>
        <mxCell id="Cr-SFjdWEyoEVIL_J9Z0-58" value="Logout Class" style="text;html=1;align=center;verticalAlign=middle;resizable=0;points=[];autosize=1;strokeColor=none;fillColor=none;" parent="Cr-SFjdWEyoEVIL_J9Z0-47" vertex="1">
          <mxGeometry x="15" y="150" width="90" height="30" as="geometry" />
        </mxCell>
        <mxCell id="Cr-SFjdWEyoEVIL_J9Z0-61" value="Database" style="swimlane;whiteSpace=wrap;html=1;" parent="Cr-SFjdWEyoEVIL_J9Z0-47" vertex="1">
          <mxGeometry x="10" y="210" width="660" height="420" as="geometry" />
        </mxCell>
        <mxCell id="Cr-SFjdWEyoEVIL_J9Z0-62" value="Id - int (Pk)&lt;br&gt;Username - String (Unique)&lt;br&gt;First Name - String&lt;br&gt;Last Name - String (Nullable)&lt;br&gt;Phone Number - int&amp;nbsp;&lt;br&gt;Nickname - String&amp;nbsp;" style="text;html=1;align=center;verticalAlign=middle;resizable=0;points=[];autosize=1;strokeColor=none;fillColor=none;" parent="Cr-SFjdWEyoEVIL_J9Z0-61" vertex="1">
          <mxGeometry x="20" y="123" width="180" height="100" as="geometry" />
        </mxCell>
        <mxCell id="Cr-SFjdWEyoEVIL_J9Z0-63" value="Normal User Table" style="text;html=1;align=center;verticalAlign=middle;resizable=0;points=[];autosize=1;strokeColor=none;fillColor=none;" parent="Cr-SFjdWEyoEVIL_J9Z0-61" vertex="1">
          <mxGeometry x="60" y="78" width="120" height="30" as="geometry" />
        </mxCell>
        <mxCell id="Cr-SFjdWEyoEVIL_J9Z0-64" value="Admin Table" style="text;html=1;align=center;verticalAlign=middle;resizable=0;points=[];autosize=1;strokeColor=none;fillColor=none;" parent="Cr-SFjdWEyoEVIL_J9Z0-61" vertex="1">
          <mxGeometry x="440" y="78" width="90" height="30" as="geometry" />
        </mxCell>
        <mxCell id="Cr-SFjdWEyoEVIL_J9Z0-65" value="Id - int (Pk)&lt;br style=&quot;border-color: var(--border-color);&quot;&gt;Username - String (Unique)&lt;br style=&quot;border-color: var(--border-color);&quot;&gt;First Name - String&lt;br style=&quot;border-color: var(--border-color);&quot;&gt;Last Name - String (Nullable)&lt;br style=&quot;border-color: var(--border-color);&quot;&gt;Phone Number - int&amp;nbsp;&lt;br style=&quot;border-color: var(--border-color);&quot;&gt;Nickname - String&lt;br&gt;Company Name - String&lt;br&gt;Gstin - String (Unique)" style="text;html=1;align=center;verticalAlign=middle;resizable=0;points=[];autosize=1;strokeColor=none;fillColor=none;" parent="Cr-SFjdWEyoEVIL_J9Z0-61" vertex="1">
          <mxGeometry x="395" y="108" width="180" height="130" as="geometry" />
        </mxCell>
        <mxCell id="Cr-SFjdWEyoEVIL_J9Z0-68" value="Id - int (Pk)&lt;br style=&quot;border-color: var(--border-color);&quot;&gt;Username - String (Unique)&lt;br style=&quot;border-color: var(--border-color);&quot;&gt;First Name - String&lt;br style=&quot;border-color: var(--border-color);&quot;&gt;Last Name - String (Nullable)&lt;br style=&quot;border-color: var(--border-color);&quot;&gt;Phone Number - int&amp;nbsp;&lt;br style=&quot;border-color: var(--border-color);&quot;&gt;Nickname - String&lt;br&gt;" style="text;html=1;align=center;verticalAlign=middle;resizable=0;points=[];autosize=1;strokeColor=none;fillColor=none;" parent="Cr-SFjdWEyoEVIL_J9Z0-61" vertex="1">
          <mxGeometry x="230" y="308" width="180" height="100" as="geometry" />
        </mxCell>
        <mxCell id="Cr-SFjdWEyoEVIL_J9Z0-67" value="Owner Table" style="text;html=1;align=center;verticalAlign=middle;resizable=0;points=[];autosize=1;strokeColor=none;fillColor=none;" parent="Cr-SFjdWEyoEVIL_J9Z0-61" vertex="1">
          <mxGeometry x="275" y="268" width="90" height="30" as="geometry" />
        </mxCell>
        <mxCell id="Cr-SFjdWEyoEVIL_J9Z0-70" value="REST API&lt;br&gt;-&amp;gt; /login&lt;br&gt;-&amp;gt;/register&lt;br&gt;-&amp;gt;resetPassword&lt;br&gt;-&amp;gt;logout" style="text;html=1;align=center;verticalAlign=middle;resizable=0;points=[];autosize=1;strokeColor=none;fillColor=none;" parent="Cr-SFjdWEyoEVIL_J9Z0-47" vertex="1">
          <mxGeometry x="470" y="60" width="110" height="90" as="geometry" />
        </mxCell>
        <mxCell id="Cr-SFjdWEyoEVIL_J9Z0-57" value="Insurance" style="swimlane;whiteSpace=wrap;html=1;" parent="1" vertex="1">
          <mxGeometry x="220" y="1680" width="680" height="750" as="geometry">
            <mxRectangle x="560" y="1380" width="100" height="30" as="alternateBounds" />
          </mxGeometry>
        </mxCell>
        <mxCell id="Cr-SFjdWEyoEVIL_J9Z0-72" value="Database" style="swimlane;whiteSpace=wrap;html=1;" parent="Cr-SFjdWEyoEVIL_J9Z0-57" vertex="1">
          <mxGeometry x="10" y="220" width="660" height="520" as="geometry" />
        </mxCell>
        <mxCell id="Cr-SFjdWEyoEVIL_J9Z0-76" value="policy id - int (unique)&lt;br&gt;admin id - int&lt;br&gt;policy type - string&lt;br&gt;description - string&lt;br&gt;coverage - int&lt;br&gt;coverage term - int&lt;br&gt;&lt;br&gt;" style="text;html=1;align=center;verticalAlign=middle;resizable=0;points=[];autosize=1;strokeColor=none;fillColor=none;" parent="Cr-SFjdWEyoEVIL_J9Z0-72" vertex="1">
          <mxGeometry x="20" y="80" width="140" height="110" as="geometry" />
        </mxCell>
        <mxCell id="Cr-SFjdWEyoEVIL_J9Z0-75" value="Policies Table" style="text;html=1;align=center;verticalAlign=middle;resizable=0;points=[];autosize=1;strokeColor=none;fillColor=none;" parent="Cr-SFjdWEyoEVIL_J9Z0-72" vertex="1">
          <mxGeometry x="40" y="38" width="100" height="30" as="geometry" />
        </mxCell>
        <mxCell id="Cr-SFjdWEyoEVIL_J9Z0-79" value="Cart id - int (unique)&lt;br&gt;user id - int&amp;nbsp;&lt;br&gt;policies - String&lt;br&gt;" style="text;html=1;align=center;verticalAlign=middle;resizable=0;points=[];autosize=1;strokeColor=none;fillColor=none;" parent="Cr-SFjdWEyoEVIL_J9Z0-72" vertex="1">
          <mxGeometry x="220" y="80" width="130" height="60" as="geometry" />
        </mxCell>
        <mxCell id="Cr-SFjdWEyoEVIL_J9Z0-74" value="Rest Api&lt;br&gt;&lt;br&gt;-&amp;gt;policyRegistration (Admin)&lt;br&gt;-&amp;gt;updatePolicy(Admin)&lt;br&gt;-&amp;gt;deletePolicy (Admin)&lt;br&gt;-&amp;gt;getPolicyDetails(User)&lt;br&gt;-&amp;gt;buyPolicy(User)&lt;br&gt;-&amp;gt;getAllPolicy(User)&lt;br&gt;" style="text;html=1;align=center;verticalAlign=middle;resizable=0;points=[];autosize=1;strokeColor=none;fillColor=none;" parent="Cr-SFjdWEyoEVIL_J9Z0-57" vertex="1">
          <mxGeometry x="450" y="30" width="170" height="130" as="geometry" />
        </mxCell>
        <mxCell id="Cr-SFjdWEyoEVIL_J9Z0-77" value="Cart Table" style="text;html=1;align=center;verticalAlign=middle;resizable=0;points=[];autosize=1;strokeColor=none;fillColor=none;" parent="1" vertex="1">
          <mxGeometry x="470" y="1938" width="80" height="30" as="geometry" />
        </mxCell>
        <mxCell id="Cr-SFjdWEyoEVIL_J9Z0-78" value="Orders Table" style="text;html=1;align=center;verticalAlign=middle;resizable=0;points=[];autosize=1;strokeColor=none;fillColor=none;" parent="1" vertex="1">
          <mxGeometry x="675" y="1938" width="90" height="30" as="geometry" />
        </mxCell>
      </root>
    </mxGraphModel>
  </diagram>
  <diagram id="xOc1Vd0ODG9BR9KPqZYE" name="Page-2">
    <mxGraphModel dx="3389" dy="2458" grid="1" gridSize="10" guides="1" tooltips="1" connect="1" arrows="1" fold="1" page="1" pageScale="1" pageWidth="1169" pageHeight="1654" math="0" shadow="0">
      <root>
        <mxCell id="0" />
        <mxCell id="1" style="" parent="0" />
        <mxCell id="MKCpzPDbQuti2jgdgYdK-6" value="" style="whiteSpace=wrap;html=1;aspect=fixed;" vertex="1" parent="1">
          <mxGeometry x="160" y="40" width="790" height="790" as="geometry" />
        </mxCell>
        <mxCell id="MKCpzPDbQuti2jgdgYdK-1" value="User Authentication" style="ellipse;whiteSpace=wrap;html=1;" vertex="1" parent="1">
          <mxGeometry x="470" y="70" width="160" height="110" as="geometry" />
        </mxCell>
        <mxCell id="MKCpzPDbQuti2jgdgYdK-9" style="edgeStyle=orthogonalEdgeStyle;rounded=0;orthogonalLoop=1;jettySize=auto;html=1;entryX=0.75;entryY=0;entryDx=0;entryDy=0;" edge="1" parent="1" source="MKCpzPDbQuti2jgdgYdK-2" target="MKCpzPDbQuti2jgdgYdK-7">
          <mxGeometry relative="1" as="geometry">
            <mxPoint x="-259.99999999999955" y="400" as="targetPoint" />
          </mxGeometry>
        </mxCell>
        <mxCell id="MKCpzPDbQuti2jgdgYdK-2" value="Insurance-ms" style="ellipse;whiteSpace=wrap;html=1;" vertex="1" parent="1">
          <mxGeometry x="470" y="210" width="160" height="110" as="geometry" />
        </mxCell>
        <mxCell id="MKCpzPDbQuti2jgdgYdK-3" value="Insurance-Cart" style="ellipse;whiteSpace=wrap;html=1;" vertex="1" parent="1">
          <mxGeometry x="470" y="360" width="160" height="110" as="geometry" />
        </mxCell>
        <mxCell id="MKCpzPDbQuti2jgdgYdK-11" style="edgeStyle=orthogonalEdgeStyle;rounded=0;orthogonalLoop=1;jettySize=auto;html=1;entryX=0.814;entryY=1.05;entryDx=0;entryDy=0;entryPerimeter=0;" edge="1" parent="1" source="MKCpzPDbQuti2jgdgYdK-4" target="MKCpzPDbQuti2jgdgYdK-7">
          <mxGeometry relative="1" as="geometry">
            <mxPoint x="-339.99999999999955" y="500" as="targetPoint" />
            <Array as="points">
              <mxPoint x="-119" y="570" />
            </Array>
          </mxGeometry>
        </mxCell>
        <mxCell id="MKCpzPDbQuti2jgdgYdK-4" value="Feedback" style="ellipse;whiteSpace=wrap;html=1;" vertex="1" parent="1">
          <mxGeometry x="465" y="510" width="170" height="120" as="geometry" />
        </mxCell>
        <mxCell id="MKCpzPDbQuti2jgdgYdK-5" value="Discount" style="ellipse;whiteSpace=wrap;html=1;" vertex="1" parent="1">
          <mxGeometry x="465" y="670" width="170" height="130" as="geometry" />
        </mxCell>
        <mxCell id="MKCpzPDbQuti2jgdgYdK-7" value="API GATEWAY" style="rounded=1;whiteSpace=wrap;html=1;" vertex="1" parent="1">
          <mxGeometry x="-290" y="370" width="210" height="120" as="geometry" />
        </mxCell>
        <mxCell id="MKCpzPDbQuti2jgdgYdK-8" style="edgeStyle=orthogonalEdgeStyle;rounded=0;orthogonalLoop=1;jettySize=auto;html=1;entryX=0.568;entryY=-0.014;entryDx=0;entryDy=0;entryPerimeter=0;" edge="1" parent="1" source="MKCpzPDbQuti2jgdgYdK-1" target="MKCpzPDbQuti2jgdgYdK-7">
          <mxGeometry relative="1" as="geometry" />
        </mxCell>
        <mxCell id="MKCpzPDbQuti2jgdgYdK-10" style="edgeStyle=orthogonalEdgeStyle;rounded=0;orthogonalLoop=1;jettySize=auto;html=1;entryX=1.029;entryY=0.375;entryDx=0;entryDy=0;entryPerimeter=0;" edge="1" parent="1" source="MKCpzPDbQuti2jgdgYdK-3" target="MKCpzPDbQuti2jgdgYdK-7">
          <mxGeometry relative="1" as="geometry" />
        </mxCell>
        <mxCell id="MKCpzPDbQuti2jgdgYdK-12" style="edgeStyle=orthogonalEdgeStyle;rounded=0;orthogonalLoop=1;jettySize=auto;html=1;entryX=0.571;entryY=1;entryDx=0;entryDy=0;entryPerimeter=0;" edge="1" parent="1" source="MKCpzPDbQuti2jgdgYdK-5" target="MKCpzPDbQuti2jgdgYdK-7">
          <mxGeometry relative="1" as="geometry" />
        </mxCell>
        <mxCell id="MKCpzPDbQuti2jgdgYdK-13" value="Online-Insurance" style="shape=cylinder3;whiteSpace=wrap;html=1;boundedLbl=1;backgroundOutline=1;size=15;" vertex="1" parent="1">
          <mxGeometry x="1150" y="332.5" width="170" height="165" as="geometry" />
        </mxCell>
        <mxCell id="M67dnTEeTjl4BfEgfXsM-2" style="edgeStyle=orthogonalEdgeStyle;rounded=0;orthogonalLoop=1;jettySize=auto;html=1;entryX=0.5;entryY=1;entryDx=0;entryDy=0;entryPerimeter=0;" edge="1" parent="1" source="MKCpzPDbQuti2jgdgYdK-5" target="MKCpzPDbQuti2jgdgYdK-13">
          <mxGeometry relative="1" as="geometry">
            <mxPoint x="1110" y="400" as="targetPoint" />
          </mxGeometry>
        </mxCell>
        <mxCell id="M67dnTEeTjl4BfEgfXsM-3" style="edgeStyle=orthogonalEdgeStyle;rounded=0;orthogonalLoop=1;jettySize=auto;html=1;entryX=0;entryY=0;entryDx=0;entryDy=116.25;entryPerimeter=0;" edge="1" parent="1" source="MKCpzPDbQuti2jgdgYdK-4" target="MKCpzPDbQuti2jgdgYdK-13">
          <mxGeometry relative="1" as="geometry" />
        </mxCell>
        <mxCell id="M67dnTEeTjl4BfEgfXsM-4" style="edgeStyle=orthogonalEdgeStyle;rounded=0;orthogonalLoop=1;jettySize=auto;html=1;entryX=0.5;entryY=0;entryDx=0;entryDy=0;entryPerimeter=0;" edge="1" parent="1" source="MKCpzPDbQuti2jgdgYdK-1" target="MKCpzPDbQuti2jgdgYdK-13">
          <mxGeometry relative="1" as="geometry" />
        </mxCell>
        <mxCell id="M67dnTEeTjl4BfEgfXsM-5" style="edgeStyle=orthogonalEdgeStyle;rounded=0;orthogonalLoop=1;jettySize=auto;html=1;entryX=0;entryY=0.5;entryDx=0;entryDy=0;entryPerimeter=0;" edge="1" parent="1" source="MKCpzPDbQuti2jgdgYdK-3" target="MKCpzPDbQuti2jgdgYdK-13">
          <mxGeometry relative="1" as="geometry" />
        </mxCell>
        <mxCell id="M67dnTEeTjl4BfEgfXsM-6" style="edgeStyle=orthogonalEdgeStyle;rounded=0;orthogonalLoop=1;jettySize=auto;html=1;entryX=0;entryY=0;entryDx=0;entryDy=48.75;entryPerimeter=0;" edge="1" parent="1" source="MKCpzPDbQuti2jgdgYdK-2" target="MKCpzPDbQuti2jgdgYdK-13">
          <mxGeometry relative="1" as="geometry" />
        </mxCell>
        <mxCell id="M67dnTEeTjl4BfEgfXsM-8" value="&lt;font style=&quot;font-size: 36px;&quot;&gt;Microservices&lt;/font&gt;" style="text;html=1;align=center;verticalAlign=middle;resizable=0;points=[];autosize=1;strokeColor=none;fillColor=none;" vertex="1" parent="1">
          <mxGeometry x="435" y="-30" width="240" height="60" as="geometry" />
        </mxCell>
        <mxCell id="M67dnTEeTjl4BfEgfXsM-11" value="Users" style="swimlane;whiteSpace=wrap;html=1;" vertex="1" parent="1">
          <mxGeometry x="-230" y="1230" width="250" height="460" as="geometry" />
        </mxCell>
        <mxCell id="M67dnTEeTjl4BfEgfXsM-12" value="&lt;span style=&quot;font-size: 18px;&quot;&gt;user_id&lt;/span&gt;" style="text;html=1;align=center;verticalAlign=middle;resizable=0;points=[];autosize=1;strokeColor=none;fillColor=none;" vertex="1" parent="M67dnTEeTjl4BfEgfXsM-11">
          <mxGeometry x="82.5" y="40" width="80" height="40" as="geometry" />
        </mxCell>
        <mxCell id="M67dnTEeTjl4BfEgfXsM-14" value="&lt;span style=&quot;font-size: 18px;&quot;&gt;username&lt;/span&gt;" style="text;html=1;align=center;verticalAlign=middle;resizable=0;points=[];autosize=1;strokeColor=none;fillColor=none;" vertex="1" parent="M67dnTEeTjl4BfEgfXsM-11">
          <mxGeometry x="72.5" y="80" width="100" height="40" as="geometry" />
        </mxCell>
        <mxCell id="M67dnTEeTjl4BfEgfXsM-15" value="&lt;span style=&quot;font-size: 18px;&quot;&gt;password&lt;/span&gt;" style="text;html=1;align=center;verticalAlign=middle;resizable=0;points=[];autosize=1;strokeColor=none;fillColor=none;" vertex="1" parent="M67dnTEeTjl4BfEgfXsM-11">
          <mxGeometry x="77.5" y="120" width="100" height="40" as="geometry" />
        </mxCell>
        <mxCell id="M67dnTEeTjl4BfEgfXsM-16" value="&lt;span style=&quot;font-size: 18px;&quot;&gt;firstname&lt;/span&gt;" style="text;html=1;align=center;verticalAlign=middle;resizable=0;points=[];autosize=1;strokeColor=none;fillColor=none;" vertex="1" parent="M67dnTEeTjl4BfEgfXsM-11">
          <mxGeometry x="72.5" y="160" width="100" height="40" as="geometry" />
        </mxCell>
        <mxCell id="M67dnTEeTjl4BfEgfXsM-17" value="&lt;span style=&quot;font-size: 18px;&quot;&gt;lastname&lt;/span&gt;" style="text;html=1;align=center;verticalAlign=middle;resizable=0;points=[];autosize=1;strokeColor=none;fillColor=none;" vertex="1" parent="M67dnTEeTjl4BfEgfXsM-11">
          <mxGeometry x="72.5" y="200" width="100" height="40" as="geometry" />
        </mxCell>
        <mxCell id="M67dnTEeTjl4BfEgfXsM-18" value="&lt;span style=&quot;font-size: 18px;&quot;&gt;phone_no&lt;/span&gt;" style="text;html=1;align=center;verticalAlign=middle;resizable=0;points=[];autosize=1;strokeColor=none;fillColor=none;" vertex="1" parent="M67dnTEeTjl4BfEgfXsM-11">
          <mxGeometry x="72.5" y="240" width="100" height="40" as="geometry" />
        </mxCell>
        <mxCell id="M67dnTEeTjl4BfEgfXsM-19" value="&lt;span style=&quot;font-size: 18px;&quot;&gt;email&lt;/span&gt;" style="text;html=1;align=center;verticalAlign=middle;resizable=0;points=[];autosize=1;strokeColor=none;fillColor=none;" vertex="1" parent="M67dnTEeTjl4BfEgfXsM-11">
          <mxGeometry x="77.5" y="280" width="70" height="40" as="geometry" />
        </mxCell>
        <mxCell id="M67dnTEeTjl4BfEgfXsM-20" value="&lt;span style=&quot;font-size: 18px;&quot;&gt;gender&lt;/span&gt;" style="text;html=1;align=center;verticalAlign=middle;resizable=0;points=[];autosize=1;strokeColor=none;fillColor=none;" vertex="1" parent="M67dnTEeTjl4BfEgfXsM-11">
          <mxGeometry x="72.5" y="320" width="80" height="40" as="geometry" />
        </mxCell>
        <mxCell id="M67dnTEeTjl4BfEgfXsM-21" value="&lt;span style=&quot;font-size: 18px;&quot;&gt;nickname&lt;/span&gt;" style="text;html=1;align=center;verticalAlign=middle;resizable=0;points=[];autosize=1;strokeColor=none;fillColor=none;" vertex="1" parent="M67dnTEeTjl4BfEgfXsM-11">
          <mxGeometry x="72.5" y="360" width="100" height="40" as="geometry" />
        </mxCell>
        <mxCell id="M67dnTEeTjl4BfEgfXsM-23" value="&lt;span style=&quot;font-size: 18px;&quot;&gt;user_type&lt;/span&gt;" style="text;html=1;align=center;verticalAlign=middle;resizable=0;points=[];autosize=1;strokeColor=none;fillColor=none;" vertex="1" parent="M67dnTEeTjl4BfEgfXsM-11">
          <mxGeometry x="72.5" y="400" width="100" height="40" as="geometry" />
        </mxCell>
        <mxCell id="M67dnTEeTjl4BfEgfXsM-13" value="&lt;font style=&quot;font-size: 24px;&quot;&gt;User Authentication&lt;/font&gt;" style="text;html=1;align=center;verticalAlign=middle;resizable=0;points=[];autosize=1;strokeColor=none;fillColor=none;" vertex="1" parent="1">
          <mxGeometry x="-230" y="1180" width="230" height="40" as="geometry" />
        </mxCell>
        <mxCell id="M67dnTEeTjl4BfEgfXsM-24" value="Policies" style="swimlane;whiteSpace=wrap;html=1;" vertex="1" parent="1">
          <mxGeometry x="210" y="1230" width="270" height="360" as="geometry" />
        </mxCell>
        <mxCell id="M67dnTEeTjl4BfEgfXsM-25" value="&lt;span style=&quot;font-size: 18px;&quot;&gt;policy_id&lt;/span&gt;" style="text;html=1;align=center;verticalAlign=middle;resizable=0;points=[];autosize=1;strokeColor=none;fillColor=none;" vertex="1" parent="M67dnTEeTjl4BfEgfXsM-24">
          <mxGeometry x="85" y="50" width="90" height="40" as="geometry" />
        </mxCell>
        <mxCell id="M67dnTEeTjl4BfEgfXsM-26" value="&lt;span style=&quot;font-size: 18px;&quot;&gt;policy_name&lt;/span&gt;" style="text;html=1;align=center;verticalAlign=middle;resizable=0;points=[];autosize=1;strokeColor=none;fillColor=none;" vertex="1" parent="M67dnTEeTjl4BfEgfXsM-24">
          <mxGeometry x="70" y="90" width="120" height="40" as="geometry" />
        </mxCell>
        <mxCell id="M67dnTEeTjl4BfEgfXsM-27" value="&lt;span style=&quot;font-size: 18px;&quot;&gt;company&lt;/span&gt;" style="text;html=1;align=center;verticalAlign=middle;resizable=0;points=[];autosize=1;strokeColor=none;fillColor=none;" vertex="1" parent="M67dnTEeTjl4BfEgfXsM-24">
          <mxGeometry x="85" y="130" width="100" height="40" as="geometry" />
        </mxCell>
        <mxCell id="M67dnTEeTjl4BfEgfXsM-28" value="&lt;span style=&quot;font-size: 18px;&quot;&gt;premium&lt;/span&gt;" style="text;html=1;align=center;verticalAlign=middle;resizable=0;points=[];autosize=1;strokeColor=none;fillColor=none;" vertex="1" parent="M67dnTEeTjl4BfEgfXsM-24">
          <mxGeometry x="85" y="170" width="90" height="40" as="geometry" />
        </mxCell>
        <mxCell id="M67dnTEeTjl4BfEgfXsM-29" value="&lt;span style=&quot;font-size: 18px;&quot;&gt;tenure&lt;/span&gt;" style="text;html=1;align=center;verticalAlign=middle;resizable=0;points=[];autosize=1;strokeColor=none;fillColor=none;" vertex="1" parent="M67dnTEeTjl4BfEgfXsM-24">
          <mxGeometry x="95" y="210" width="70" height="40" as="geometry" />
        </mxCell>
        <mxCell id="M67dnTEeTjl4BfEgfXsM-36" value="&lt;span style=&quot;font-size: 18px;&quot;&gt;coverage&lt;/span&gt;" style="text;html=1;align=center;verticalAlign=middle;resizable=0;points=[];autosize=1;strokeColor=none;fillColor=none;" vertex="1" parent="M67dnTEeTjl4BfEgfXsM-24">
          <mxGeometry x="80" y="250" width="100" height="40" as="geometry" />
        </mxCell>
        <mxCell id="M67dnTEeTjl4BfEgfXsM-33" value="&lt;span style=&quot;font-size: 18px;&quot;&gt;insurance_type_id&lt;/span&gt;" style="text;html=1;align=center;verticalAlign=middle;resizable=0;points=[];autosize=1;strokeColor=none;fillColor=none;" vertex="1" parent="M67dnTEeTjl4BfEgfXsM-24">
          <mxGeometry x="60" y="290" width="170" height="40" as="geometry" />
        </mxCell>
        <mxCell id="M67dnTEeTjl4BfEgfXsM-53" style="edgeStyle=orthogonalEdgeStyle;rounded=0;orthogonalLoop=1;jettySize=auto;html=1;entryX=0.5;entryY=0;entryDx=0;entryDy=0;" edge="1" parent="1" source="M67dnTEeTjl4BfEgfXsM-35" target="M67dnTEeTjl4BfEgfXsM-37">
          <mxGeometry relative="1" as="geometry" />
        </mxCell>
        <mxCell id="M67dnTEeTjl4BfEgfXsM-55" style="edgeStyle=orthogonalEdgeStyle;rounded=0;orthogonalLoop=1;jettySize=auto;html=1;entryX=0.5;entryY=0;entryDx=0;entryDy=0;" edge="1" parent="1" source="M67dnTEeTjl4BfEgfXsM-35" target="M67dnTEeTjl4BfEgfXsM-24">
          <mxGeometry relative="1" as="geometry" />
        </mxCell>
        <mxCell id="M67dnTEeTjl4BfEgfXsM-35" value="&lt;font style=&quot;font-size: 24px;&quot;&gt;Insurance-ms&lt;/font&gt;" style="text;html=1;align=center;verticalAlign=middle;resizable=0;points=[];autosize=1;strokeColor=none;fillColor=none;" vertex="1" parent="1">
          <mxGeometry x="410" y="1130" width="170" height="40" as="geometry" />
        </mxCell>
        <mxCell id="M67dnTEeTjl4BfEgfXsM-37" value="Insurance Type" style="swimlane;whiteSpace=wrap;html=1;" vertex="1" parent="1">
          <mxGeometry x="500" y="1230" width="270" height="140" as="geometry" />
        </mxCell>
        <mxCell id="M67dnTEeTjl4BfEgfXsM-38" value="&lt;span style=&quot;font-size: 18px;&quot;&gt;id&lt;/span&gt;" style="text;html=1;align=center;verticalAlign=middle;resizable=0;points=[];autosize=1;strokeColor=none;fillColor=none;" vertex="1" parent="M67dnTEeTjl4BfEgfXsM-37">
          <mxGeometry x="115" y="45" width="40" height="40" as="geometry" />
        </mxCell>
        <mxCell id="M67dnTEeTjl4BfEgfXsM-39" value="&lt;span style=&quot;font-size: 18px;&quot;&gt;name&lt;/span&gt;" style="text;html=1;align=center;verticalAlign=middle;resizable=0;points=[];autosize=1;strokeColor=none;fillColor=none;" vertex="1" parent="M67dnTEeTjl4BfEgfXsM-37">
          <mxGeometry x="100" y="75" width="70" height="40" as="geometry" />
        </mxCell>
        <mxCell id="M67dnTEeTjl4BfEgfXsM-45" value="Orders" style="swimlane;whiteSpace=wrap;html=1;startSize=23;" vertex="1" parent="1">
          <mxGeometry x="920" y="1230" width="270" height="190" as="geometry" />
        </mxCell>
        <mxCell id="M67dnTEeTjl4BfEgfXsM-46" value="&lt;span style=&quot;font-size: 18px;&quot;&gt;order_id&lt;/span&gt;" style="text;html=1;align=center;verticalAlign=middle;resizable=0;points=[];autosize=1;strokeColor=none;fillColor=none;" vertex="1" parent="M67dnTEeTjl4BfEgfXsM-45">
          <mxGeometry x="90" y="40" width="90" height="40" as="geometry" />
        </mxCell>
        <mxCell id="M67dnTEeTjl4BfEgfXsM-47" value="&lt;span style=&quot;font-size: 18px;&quot;&gt;user_id&lt;/span&gt;" style="text;html=1;align=center;verticalAlign=middle;resizable=0;points=[];autosize=1;strokeColor=none;fillColor=none;" vertex="1" parent="M67dnTEeTjl4BfEgfXsM-45">
          <mxGeometry x="95" y="70" width="80" height="40" as="geometry" />
        </mxCell>
        <mxCell id="M67dnTEeTjl4BfEgfXsM-48" value="&lt;span style=&quot;font-size: 18px;&quot;&gt;policy_ids&lt;/span&gt;" style="text;html=1;align=center;verticalAlign=middle;resizable=0;points=[];autosize=1;strokeColor=none;fillColor=none;" vertex="1" parent="M67dnTEeTjl4BfEgfXsM-45">
          <mxGeometry x="85" y="100" width="100" height="40" as="geometry" />
        </mxCell>
        <mxCell id="M67dnTEeTjl4BfEgfXsM-56" value="Cart" style="swimlane;whiteSpace=wrap;html=1;" vertex="1" parent="1">
          <mxGeometry x="1200" y="1230" width="250" height="190" as="geometry" />
        </mxCell>
        <mxCell id="M67dnTEeTjl4BfEgfXsM-57" value="&lt;span style=&quot;font-size: 18px;&quot;&gt;cart_id&lt;/span&gt;" style="text;html=1;align=center;verticalAlign=middle;resizable=0;points=[];autosize=1;strokeColor=none;fillColor=none;" vertex="1" parent="M67dnTEeTjl4BfEgfXsM-56">
          <mxGeometry x="82.5" y="40" width="80" height="40" as="geometry" />
        </mxCell>
        <mxCell id="M67dnTEeTjl4BfEgfXsM-58" value="&lt;span style=&quot;font-size: 18px;&quot;&gt;user_id&lt;/span&gt;" style="text;html=1;align=center;verticalAlign=middle;resizable=0;points=[];autosize=1;strokeColor=none;fillColor=none;" vertex="1" parent="M67dnTEeTjl4BfEgfXsM-56">
          <mxGeometry x="82.5" y="75" width="80" height="40" as="geometry" />
        </mxCell>
        <mxCell id="M67dnTEeTjl4BfEgfXsM-66" value="&lt;span style=&quot;font-size: 18px;&quot;&gt;policy_id&lt;/span&gt;" style="text;html=1;align=center;verticalAlign=middle;resizable=0;points=[];autosize=1;strokeColor=none;fillColor=none;" vertex="1" parent="M67dnTEeTjl4BfEgfXsM-56">
          <mxGeometry x="80" y="110" width="90" height="40" as="geometry" />
        </mxCell>
        <mxCell id="M67dnTEeTjl4BfEgfXsM-70" style="edgeStyle=orthogonalEdgeStyle;rounded=0;orthogonalLoop=1;jettySize=auto;html=1;entryX=0.5;entryY=0;entryDx=0;entryDy=0;" edge="1" parent="1" source="M67dnTEeTjl4BfEgfXsM-67" target="M67dnTEeTjl4BfEgfXsM-45">
          <mxGeometry relative="1" as="geometry" />
        </mxCell>
        <mxCell id="M67dnTEeTjl4BfEgfXsM-71" style="edgeStyle=orthogonalEdgeStyle;rounded=0;orthogonalLoop=1;jettySize=auto;html=1;entryX=0.5;entryY=0;entryDx=0;entryDy=0;" edge="1" parent="1" source="M67dnTEeTjl4BfEgfXsM-67" target="M67dnTEeTjl4BfEgfXsM-56">
          <mxGeometry relative="1" as="geometry" />
        </mxCell>
        <mxCell id="M67dnTEeTjl4BfEgfXsM-67" value="&lt;font style=&quot;font-size: 24px;&quot;&gt;Cart-ms&lt;/font&gt;" style="text;html=1;align=center;verticalAlign=middle;resizable=0;points=[];autosize=1;strokeColor=none;fillColor=none;" vertex="1" parent="1">
          <mxGeometry x="1130" y="1140" width="110" height="40" as="geometry" />
        </mxCell>
        <mxCell id="M67dnTEeTjl4BfEgfXsM-76" value="Discount" style="swimlane;whiteSpace=wrap;html=1;" vertex="1" parent="1">
          <mxGeometry x="1060" y="1570" width="250" height="180" as="geometry" />
        </mxCell>
        <mxCell id="M67dnTEeTjl4BfEgfXsM-77" value="&lt;span style=&quot;font-size: 18px;&quot;&gt;discount_id&lt;/span&gt;" style="text;html=1;align=center;verticalAlign=middle;resizable=0;points=[];autosize=1;strokeColor=none;fillColor=none;" vertex="1" parent="M67dnTEeTjl4BfEgfXsM-76">
          <mxGeometry x="67.5" y="40" width="110" height="40" as="geometry" />
        </mxCell>
        <mxCell id="M67dnTEeTjl4BfEgfXsM-78" value="&lt;span style=&quot;font-size: 18px;&quot;&gt;policy_id&lt;/span&gt;" style="text;html=1;align=center;verticalAlign=middle;resizable=0;points=[];autosize=1;strokeColor=none;fillColor=none;" vertex="1" parent="M67dnTEeTjl4BfEgfXsM-76">
          <mxGeometry x="77.5" y="75" width="90" height="40" as="geometry" />
        </mxCell>
        <mxCell id="M67dnTEeTjl4BfEgfXsM-84" value="&lt;span style=&quot;font-size: 18px;&quot;&gt;value&lt;/span&gt;" style="text;html=1;align=center;verticalAlign=middle;resizable=0;points=[];autosize=1;strokeColor=none;fillColor=none;" vertex="1" parent="M67dnTEeTjl4BfEgfXsM-76">
          <mxGeometry x="87.5" y="115" width="70" height="40" as="geometry" />
        </mxCell>
        <mxCell id="M67dnTEeTjl4BfEgfXsM-81" style="edgeStyle=orthogonalEdgeStyle;rounded=0;orthogonalLoop=1;jettySize=auto;html=1;entryX=0.5;entryY=0;entryDx=0;entryDy=0;" edge="1" parent="1" source="M67dnTEeTjl4BfEgfXsM-82" target="M67dnTEeTjl4BfEgfXsM-76">
          <mxGeometry relative="1" as="geometry" />
        </mxCell>
        <mxCell id="M67dnTEeTjl4BfEgfXsM-82" value="&lt;font style=&quot;font-size: 24px;&quot;&gt;Discount-ms&lt;/font&gt;" style="text;html=1;align=center;verticalAlign=middle;resizable=0;points=[];autosize=1;strokeColor=none;fillColor=none;" vertex="1" parent="1">
          <mxGeometry x="1105" y="1460" width="160" height="40" as="geometry" />
        </mxCell>
        <mxCell id="M67dnTEeTjl4BfEgfXsM-85" value="Feedback" style="swimlane;whiteSpace=wrap;html=1;" vertex="1" parent="1">
          <mxGeometry x="610" y="1570" width="250" height="170" as="geometry" />
        </mxCell>
        <mxCell id="M67dnTEeTjl4BfEgfXsM-86" value="&lt;span style=&quot;font-size: 18px;&quot;&gt;feedback_id&lt;/span&gt;" style="text;html=1;align=center;verticalAlign=middle;resizable=0;points=[];autosize=1;strokeColor=none;fillColor=none;" vertex="1" parent="M67dnTEeTjl4BfEgfXsM-85">
          <mxGeometry x="62.5" y="40" width="120" height="40" as="geometry" />
        </mxCell>
        <mxCell id="M67dnTEeTjl4BfEgfXsM-87" value="&lt;span style=&quot;font-size: 18px;&quot;&gt;order_id&lt;/span&gt;" style="text;html=1;align=center;verticalAlign=middle;resizable=0;points=[];autosize=1;strokeColor=none;fillColor=none;" vertex="1" parent="M67dnTEeTjl4BfEgfXsM-85">
          <mxGeometry x="77.5" y="75" width="90" height="40" as="geometry" />
        </mxCell>
        <mxCell id="M67dnTEeTjl4BfEgfXsM-91" value="&lt;span style=&quot;font-size: 18px;&quot;&gt;feedback&lt;/span&gt;" style="text;html=1;align=center;verticalAlign=middle;resizable=0;points=[];autosize=1;strokeColor=none;fillColor=none;" vertex="1" parent="M67dnTEeTjl4BfEgfXsM-85">
          <mxGeometry x="72.5" y="115" width="100" height="40" as="geometry" />
        </mxCell>
        <mxCell id="M67dnTEeTjl4BfEgfXsM-89" style="edgeStyle=orthogonalEdgeStyle;rounded=0;orthogonalLoop=1;jettySize=auto;html=1;entryX=0.5;entryY=0;entryDx=0;entryDy=0;" edge="1" parent="1" source="M67dnTEeTjl4BfEgfXsM-90" target="M67dnTEeTjl4BfEgfXsM-85">
          <mxGeometry relative="1" as="geometry" />
        </mxCell>
        <mxCell id="M67dnTEeTjl4BfEgfXsM-90" value="&lt;font style=&quot;font-size: 24px;&quot;&gt;Feedback-ms&lt;/font&gt;" style="text;html=1;align=center;verticalAlign=middle;resizable=0;points=[];autosize=1;strokeColor=none;fillColor=none;" vertex="1" parent="1">
          <mxGeometry x="650" y="1460" width="170" height="40" as="geometry" />
        </mxCell>
        <mxCell id="M67dnTEeTjl4BfEgfXsM-107" value="&lt;font style=&quot;font-size: 24px;&quot;&gt;Mappings&lt;/font&gt;" style="swimlane;whiteSpace=wrap;html=1;startSize=40;" vertex="1" parent="1">
          <mxGeometry x="130" y="1920" width="790" height="330" as="geometry" />
        </mxCell>
        <mxCell id="M67dnTEeTjl4BfEgfXsM-105" value="&lt;font style=&quot;font-size: 18px;&quot;&gt;Users -- Policies : One to many&lt;/font&gt;" style="text;strokeColor=none;fillColor=none;align=left;verticalAlign=middle;spacingLeft=4;spacingRight=4;overflow=hidden;points=[[0,0.5],[1,0.5]];portConstraint=eastwest;rotatable=0;whiteSpace=wrap;html=1;" vertex="1" parent="M67dnTEeTjl4BfEgfXsM-107">
          <mxGeometry x="250" y="140" width="290" height="30" as="geometry" />
        </mxCell>
        <mxCell id="M67dnTEeTjl4BfEgfXsM-106" value="&lt;font style=&quot;font-size: 18px;&quot;&gt;Insurance Type -- Policies : One to many&lt;/font&gt;" style="text;strokeColor=none;fillColor=none;align=left;verticalAlign=middle;spacingLeft=4;spacingRight=4;overflow=hidden;points=[[0,0.5],[1,0.5]];portConstraint=eastwest;rotatable=0;whiteSpace=wrap;html=1;" vertex="1" parent="M67dnTEeTjl4BfEgfXsM-107">
          <mxGeometry x="220" y="180" width="340" height="30" as="geometry" />
        </mxCell>
        <mxCell id="M67dnTEeTjl4BfEgfXsM-108" value="&lt;font style=&quot;font-size: 18px;&quot;&gt;Users -- Orders : Many to many&lt;/font&gt;" style="text;html=1;align=center;verticalAlign=middle;resizable=0;points=[];autosize=1;strokeColor=none;fillColor=none;" vertex="1" parent="M67dnTEeTjl4BfEgfXsM-107">
          <mxGeometry x="250" y="210" width="280" height="40" as="geometry" />
        </mxCell>
        <mxCell id="M67dnTEeTjl4BfEgfXsM-109" value="&lt;font style=&quot;font-size: 18px;&quot;&gt;Users -- Cart: One to one&lt;/font&gt;" style="text;html=1;align=center;verticalAlign=middle;resizable=0;points=[];autosize=1;strokeColor=none;fillColor=none;" vertex="1" parent="M67dnTEeTjl4BfEgfXsM-107">
          <mxGeometry x="260" y="250" width="230" height="40" as="geometry" />
        </mxCell>
        <mxCell id="M67dnTEeTjl4BfEgfXsM-110" value="&lt;font style=&quot;font-size: 18px;&quot;&gt;Discount -- Policies : One to one&lt;/font&gt;" style="text;strokeColor=none;fillColor=none;align=left;verticalAlign=middle;spacingLeft=4;spacingRight=4;overflow=hidden;points=[[0,0.5],[1,0.5]];portConstraint=eastwest;rotatable=0;whiteSpace=wrap;html=1;" vertex="1" parent="M67dnTEeTjl4BfEgfXsM-107">
          <mxGeometry x="250" y="100" width="290" height="30" as="geometry" />
        </mxCell>
        <mxCell id="M67dnTEeTjl4BfEgfXsM-111" value="&lt;font style=&quot;font-size: 18px;&quot;&gt;Orders-- Feedback : One to one&lt;/font&gt;" style="text;strokeColor=none;fillColor=none;align=left;verticalAlign=middle;spacingLeft=4;spacingRight=4;overflow=hidden;points=[[0,0.5],[1,0.5]];portConstraint=eastwest;rotatable=0;whiteSpace=wrap;html=1;" vertex="1" parent="M67dnTEeTjl4BfEgfXsM-107">
          <mxGeometry x="250" y="60" width="290" height="30" as="geometry" />
        </mxCell>
      </root>
    </mxGraphModel>
  </diagram>
  <diagram id="0h9_UxyJq49q1jAVv2KP" name="Page-3">
    <mxGraphModel dx="1674" dy="597" grid="1" gridSize="10" guides="1" tooltips="1" connect="1" arrows="1" fold="1" page="1" pageScale="1" pageWidth="1169" pageHeight="1654" math="0" shadow="0">
      <root>
        <mxCell id="0" />
        <mxCell id="1" parent="0" />
      </root>
    </mxGraphModel>
  </diagram>
</mxfile>
